<?xml version="1.0" encoding="UTF-8" standalone="no"?>
<svg
   fill="#000000"
   viewBox="0 0 30 30"
   width="30px"
   height="30px"
   version="1.1"
   id="svg4"
   sodipodi:docname="github.svg"
   inkscape:version="1.1.1 (3bf5ae0d25, 2021-09-20)"
   xmlns:inkscape="http://www.inkscape.org/namespaces/inkscape"
   xmlns:sodipodi="http://sodipodi.sourceforge.net/DTD/sodipodi-0.dtd"
   xmlns="http://www.w3.org/2000/svg"
   xmlns:svg="http://www.w3.org/2000/svg">
  <defs
     id="defs8" />
  <sodipodi:namedview
     id="namedview6"
     pagecolor="#505050"
     bordercolor="#eeeeee"
     borderopacity="1"
     inkscape:pageshadow="0"
     inkscape:pageopacity="0"
     inkscape:pagecheckerboard="0"
     showgrid="false"
     inkscape:zoom="5.6568543"
     inkscape:cx="-7.2141781"
     inkscape:cy="4.2392522"
     inkscape:window-width="1366"
     inkscape:window-height="705"
     inkscape:window-x="-8"
     inkscape:window-y="-8"
     inkscape:window-maximized="1"
     inkscape:current-layer="svg4"
     inkscape:rotation="-1" />
  <path
     d="m 15.009932,0.25464753 c -8.2706258,0 -14.9762354,6.70560967 -14.9762354,14.97623547 0,7.017614 4.832332,12.889547 11.3469944,14.514469 -0.06989,-0.20218 -0.114818,-0.436807 -0.114818,-0.727596 v -2.559688 c -0.607785,0 -1.6261691,0 -1.8820128,0 -1.0246243,0 -1.9356788,-0.440551 -2.3774778,-1.259251 C 6.5159107,24.28901 6.4310454,22.897469 5.2154742,22.04632 4.8547966,21.763018 5.1293612,21.43978 5.5449513,21.483462 c 0.7675323,0.217155 1.4040222,0.743819 2.0030716,1.52508 0.5965533,0.782509 0.8773583,0.959727 1.991839,0.959727 0.5403931,0 1.3491091,-0.0312 2.1104021,-0.151011 0.40935,-1.039599 1.116978,-1.996832 1.981854,-2.448615 -4.9870859,-0.512935 -7.3670593,-2.993999 -7.3670593,-6.362404 0,-1.450199 0.6177698,-2.852973 1.6673538,-4.034847 C 7.5879597,9.7982539 7.1548968,7.4058003 8.0647031,6.4947459 c 2.2439389,0 3.6005369,1.4551909 3.9262699,1.8483171 1.118226,-0.383142 2.346277,-0.6002974 3.636729,-0.6002974 1.292949,0 2.525992,0.2171554 3.646714,0.6027934 0.321988,-0.3906301 1.679835,-1.8508131 3.928764,-1.8508131 0.913552,0.9123024 0.475497,3.3147402 0.1273,4.4853821 1.043344,1.179378 1.657369,2.578408 1.657369,4.026111 0,3.365909 -2.376229,5.845725 -7.355828,6.361157 1.370325,0.715114 2.36999,2.724427 2.36999,4.238275 v 3.412085 c 0,0.129794 -0.02871,0.223395 -0.04368,0.334469 C 25.794074,27.306723 29.986172,21.765514 29.986172,15.230883 29.98617,6.9602572 23.280559,0.25464753 15.009933,0.25464753 Z"
     id="path2"
     style="opacity:1;fill:#c0e8f9;fill-opacity:1;stroke-width:1.24803" />
</svg>
