<?xml version="1.0" encoding="UTF-8" standalone="no"?>
<svg
   fill="#000000"
   viewBox="0 0 24 24"
   width="24px"
   height="24px"
   version="1.1"
   id="svg4"
   sodipodi:docname="instagram.svg"
   inkscape:version="1.1.1 (3bf5ae0d25, 2021-09-20)"
   xmlns:inkscape="http://www.inkscape.org/namespaces/inkscape"
   xmlns:sodipodi="http://sodipodi.sourceforge.net/DTD/sodipodi-0.dtd"
   xmlns="http://www.w3.org/2000/svg"
   xmlns:svg="http://www.w3.org/2000/svg">
  <defs
     id="defs8" />
  <sodipodi:namedview
     id="namedview6"
     pagecolor="#505050"
     bordercolor="#eeeeee"
     borderopacity="1"
     inkscape:pageshadow="0"
     inkscape:pageopacity="0"
     inkscape:pagecheckerboard="0"
     showgrid="false"
     inkscape:zoom="5.4166668"
     inkscape:cx="43.292307"
     inkscape:cy="0.092307691"
     inkscape:window-width="1366"
     inkscape:window-height="705"
     inkscape:window-x="-8"
     inkscape:window-y="-8"
     inkscape:window-maximized="1"
     inkscape:current-layer="svg4" />
  <path
     d="M 6.6666667,4.6153846e-8 C 2.9906667,4.6153846e-8 3.9560434e-8,2.9906667 3.9560434e-8,6.6666667 V 17.333334 C 3.9560434e-8,21.009334 2.9906667,24 6.6666667,24 H 17.333334 C 21.009334,24 24,21.009334 24,17.333334 V 6.6666667 C 24,2.9906667 21.009334,4.6153846e-8 17.333334,4.6153846e-8 Z M 6.6666667,2.6666667 H 17.333334 c 2.205332,0 4,1.7946667 4,4 V 17.333334 c 0,2.205332 -1.794668,4 -4,4 H 6.6666667 c -2.2053333,0 -4,-1.794668 -4,-4 V 6.6666667 c 0,-2.2053333 1.7946667,-4 4,-4 z M 18.666666,4 A 1.3333334,1.3333334 0 0 0 17.333334,5.3333334 1.3333334,1.3333334 0 0 0 18.666666,6.6666667 1.3333334,1.3333334 0 0 0 20,5.3333334 1.3333334,1.3333334 0 0 0 18.666666,4 Z M 12,5.3333334 C 8.324,5.3333334 5.3333334,8.324 5.3333334,12 5.3333334,15.676 8.324,18.666666 12,18.666666 15.676,18.666666 18.666666,15.676 18.666666,12 18.666666,8.324 15.676,5.3333334 12,5.3333334 Z M 12,8 c 2.205334,0 4,1.7946667 4,4 0,2.205334 -1.794666,4 -4,4 C 9.7946663,16 8,14.205334 8,12 8,9.7946667 9.7946663,8 12,8 Z"
     id="path2"
     style="fill:#c0e8f9;fill-opacity:1;stroke-width:1.33334" />
</svg>
