<?xml version="1.0" encoding="UTF-8" standalone="no"?>
<svg
   width="16"
   height="16"
   viewBox="0 0 16 16"
   fill="none"
   version="1.1"
   id="svg11"
   sodipodi:docname="linkedin.svg"
   inkscape:version="1.1.1 (3bf5ae0d25, 2021-09-20)"
   xmlns:inkscape="http://www.inkscape.org/namespaces/inkscape"
   xmlns:sodipodi="http://sodipodi.sourceforge.net/DTD/sodipodi-0.dtd"
   xmlns="http://www.w3.org/2000/svg"
   xmlns:svg="http://www.w3.org/2000/svg">
  <sodipodi:namedview
     id="namedview13"
     pagecolor="#505050"
     bordercolor="#eeeeee"
     borderopacity="1"
     inkscape:pageshadow="0"
     inkscape:pageopacity="0"
     inkscape:pagecheckerboard="0"
     showgrid="false"
     inkscape:zoom="32.5"
     inkscape:cx="7.9846154"
     inkscape:cy="7.9846154"
     inkscape:window-width="1366"
     inkscape:window-height="705"
     inkscape:window-x="-8"
     inkscape:window-y="-8"
     inkscape:window-maximized="1"
     inkscape:current-layer="svg11" />
  <g
     clip-path="url(#clip0)"
     id="g4"
     style="fill:#c0e8f9;fill-opacity:1">
    <path
       d="M15.3 0H0.7C0.3 0 0 0.3 0 0.7V15.4C0 15.7 0.3 16 0.7 16H15.4C15.8 16 16.1 15.7 16.1 15.3V0.7C16 0.3 15.7 0 15.3 0ZM4.7 13.6H2.4V6H4.8V13.6H4.7ZM3.6 5C2.8 5 2.2 4.3 2.2 3.6C2.2 2.8 2.8 2.2 3.6 2.2C4.4 2.2 5 2.8 5 3.6C4.9 4.3 4.3 5 3.6 5ZM13.6 13.6H11.2V9.9C11.2 9 11.2 7.9 10 7.9C8.8 7.9 8.6 8.9 8.6 9.9V13.7H6.2V6H8.5V7C8.8 6.4 9.6 5.8 10.7 5.8C13.1 5.8 13.5 7.4 13.5 9.4V13.6H13.6Z"
       fill="#3E3E42"
       id="path2"
       style="fill:#c0e8f9;fill-opacity:1" />
  </g>
  <defs
     id="defs9">
    <clipPath
       id="clip0">
      <rect
         width="16"
         height="16"
         fill="white"
         id="rect6" />
    </clipPath>
  </defs>
</svg>
